<?xml version="1.0" standalone="no"?>
<!DOCTYPE svg PUBLIC "-//W3C//DTD SVG 20010904//EN"
 "http://www.w3.org/TR/2001/REC-SVG-20010904/DTD/svg10.dtd">
<svg version="1.0" xmlns="http://www.w3.org/2000/svg"
 width="900.000000pt" height="900.000000pt" viewBox="0 0 900.000000 900.000000"
 preserveAspectRatio="xMidYMid meet">
<metadata>
Created by potrace 1.16, written by Peter Selinger 2001-2019
</metadata>
<g transform="translate(0.000000,900.000000) scale(0.040000,-0.040000)"
fill="#000000" stroke="none">
<path d="M11310 17378 c-80 -50 -201 -125 -270 -167 -69 -43 -240 -149 -380
-236 -353 -219 -1066 -661 -1420 -880 -162 -100 -452 -280 -645 -400 -192
-120 -450 -279 -572 -354 -122 -75 -223 -139 -223 -142 0 -4 244 -137 543
-297 298 -160 585 -313 637 -342 52 -28 109 -58 126 -67 l31 -15 204 124 c277
169 747 455 839 510 83 50 113 69 775 471 253 154 465 280 470 280 6 0 174
-118 375 -262 201 -144 471 -337 600 -430 129 -92 403 -288 608 -435 205 -147
379 -269 387 -272 12 -5 235 121 665 376 52 30 214 125 358 210 l264 154 -29
23 c-15 13 -113 83 -218 156 -104 73 -725 508 -1380 967 -1443 1011 -1577
1105 -1590 1112 -5 3 -75 -35 -155 -84z"/>
<path d="M11210 14737 c-118 -71 -379 -230 -580 -352 -201 -122 -619 -376
-929 -565 l-565 -342 -65 35 c-36 19 -313 168 -616 329 -302 162 -597 320
-655 350 -112 59 -741 395 -952 509 -70 38 -132 69 -138 69 -7 0 -10 -845 -7
-2747 3 -3037 -1 -2819 67 -3217 121 -708 410 -1377 848 -1961 234 -311 576
-653 899 -897 1253 -949 2927 -1178 4393 -601 567 223 1063 543 1499 968 832
810 1307 1841 1381 3000 10 169 14 5495 3 5495 -7 0 -136 -73 -1163 -658 -371
-211 -797 -454 -945 -538 -149 -85 -275 -154 -281 -154 -6 0 -199 135 -430
300 -230 165 -527 378 -659 472 -132 95 -382 274 -556 398 -173 125 -320 229
-325 232 -5 3 -106 -53 -224 -125z m458 -1877 c166 -118 301 -217 301 -220 0
-9 -602 -345 -615 -344 -8 1 -139 68 -291 150 -153 82 -304 162 -335 179 -32
16 -58 32 -58 35 0 3 46 32 102 65 56 33 210 126 342 207 133 81 244 146 247
145 3 -1 142 -99 307 -217z m-3336 -646 c144 -77 191 -103 558 -299 151 -81
419 -224 595 -317 176 -94 323 -174 327 -177 5 -4 -236 -146 -535 -316 -298
-170 -660 -376 -805 -458 -144 -83 -265 -148 -267 -145 -8 8 -11 1778 -3 1778
4 0 62 -30 130 -66z m5968 -1415 c0 -1558 0 -1543 -56 -1824 -93 -462 -311
-930 -610 -1305 -86 -108 -363 -385 -474 -474 -265 -211 -610 -400 -945 -516
-107 -37 -363 -99 -508 -122 -126 -20 -178 -23 -457 -23 -338 0 -413 7 -659
61 -456 101 -873 302 -1251 602 -126 100 -377 352 -479 480 -187 237 -350 520
-454 787 -53 136 -123 353 -116 360 3 3 435 248 1374 783 356 202 842 479
1260 717 588 335 1221 696 1590 905 182 104 654 373 1050 599 396 225 723 409
728 408 4 -1 7 -648 7 -1438z"/>
</g>
</svg>
