<?xml version="1.0" ?><!DOCTYPE svg  PUBLIC '-//W3C//DTD SVG 1.1//EN'  'http://www.w3.org/Graphics/SVG/1.1/DTD/svg11.dtd'><svg xmlns="http://www.w3.org/2000/svg" xmlns:xlink="http://www.w3.org/1999/xlink" version="1.1" id="Layer_1" width="512px" height="512px" viewBox="0 0 512 512" enable-background="new 0 0 512 512" xml:space="preserve"><g><path fill-rule="evenodd" clip-rule="evenodd" fill="#F5ACCC" d="M132.352,98.089c-12.928,21.696-5.465,78.322,1.116,118.096   c5.704,25.244,45.775,12.623,39.736-23.884c-0.599-3.023-1.192-6.047-1.786-9.07c21.646-6.384,69.277-27.836,90.778-43.285   c12.972-10.854,20.509-22.829,25.237-36.547c2.429-1.979,19.964,1.853,38.765,6.074V27.411   c-29.789-1.902-72.241-7.126-89.366-5.701C198.665,33.423,160.651,64.687,132.352,98.089z"/><path fill-rule="evenodd" clip-rule="evenodd" fill="#FFF584" d="M333.154,137.36h46.617c3.829,0,6.955-2.842,6.955-6.316V13.813   c0-3.477-3.126-6.313-6.955-6.313h-46.617c-3.829,0-6.956,2.837-6.956,6.313v117.231   C326.198,134.519,329.325,137.36,333.154,137.36z"/><path fill="#5B57A4" d="M333.698,129.858h45.528V14.999h-45.528V129.858L333.698,129.858z M138.462,102.45   c-5.324,9.522-6.388,27.385-5.399,47.556c1.051,21.376,4.505,45.116,7.752,64.762c0.981,4.053,3.356,6.283,6.146,6.896l0.029,0.006   v-0.006c1.613,0.354,3.42,0.273,5.25-0.216c2.064-0.55,4.107-1.573,5.955-3.032c5.611-4.434,9.55-12.856,7.66-24.682h-0.008   l-0.278-1.439c-2.552,0.386-4.757,0.35-6.544-0.16c-0.326-0.089-0.647-0.202-0.966-0.335c-4.634-1.979-8.275-4.754-10.974-7.955   c-3.104-3.68-4.962-7.916-5.669-12.175c-0.838-5.103-0.264-10.787,1.751-16.409c1.745-4.881,4.625-9.82,8.644-14.372   c0.121-0.16,0.252-0.318,0.39-0.469c2.006-2.227,4.439-4.41,7.233-6.613l1.998-16.658c0.483-4.106,4.214-7.044,8.319-6.56   c4.108,0.483,7.048,4.209,6.563,8.319l-0.419,3.5l2.786-1.807c9.683-6.267,20.871-13.503,32.013-22.471   c3.216-2.589,7.929-2.078,10.518,1.144c2.587,3.22,2.076,7.928-1.143,10.517c-11.667,9.388-23.231,16.872-33.242,23.351   c-10.355,6.699-18.954,12.262-23.492,17.298c-0.123,0.136-0.246,0.262-0.374,0.386c-2.629,2.997-4.521,6.253-5.675,9.476   c-1.168,3.26-1.528,6.359-1.102,8.967c0.276,1.675,1.043,3.382,2.327,4.91c0.979,1.158,2.264,2.219,3.862,3.102   c0.212,0.113,0.834,0.25,1.127,0.207c1.342-0.215,3.178-0.667,5.412-1.318c0.244-0.089,0.495-0.163,0.756-0.223l0.069-0.022   l0.147-0.042l0.296-0.09l0.013-0.005l0.133-0.041l0.151-0.047l0.149-0.046l0.108-0.033l0.044-0.014l0.149-0.046l0.156-0.048   l0.153-0.05l0.047-0.015l0.108-0.035l0.159-0.048l0.153-0.05c2.527-0.807,5.413-1.814,8.574-2.979   c2.815-1.041,5.807-2.197,8.919-3.448l0.135-0.056l0.089-0.036l0.221-0.088l0.447-0.183l0.008-0.001l0.217-0.089l0.224-0.091   l0.227-0.092l0.104-0.041l0.121-0.051l0.225-0.091l0.228-0.094l0.198-0.083l0.024-0.01l0.227-0.093l0.229-0.093l0.229-0.095   l0.071-0.029l0.156-0.063l0.454-0.188l0.173-0.073l0.057-0.022l0.688-0.287l0.044-0.019l0.28-0.117l0.057-0.025l0.07-0.029   l0.073-0.031c1.53-0.666,7.328-3.261,12.667-5.658l9.537-4.278l0.48-0.227c15.613-7.442,30.726-15.598,40.306-22.414   c5.886-4.933,10.53-10.107,14.23-15.585c3.708-5.484,6.489-11.331,8.653-17.591c0.978-2.866,3.525-4.749,6.354-5.03   c3.721-0.717,8.993-0.313,15.264,0.789c4.659,0.82,10.456,2.039,16.734,3.417V34.395c-8.414-0.618-17.084-1.388-25.76-2.154   c-21.878-1.936-43.754-3.868-54.775-3.113c-16.808,5.295-33.677,14.618-49.655,26.302C170.144,68.852,153.011,85.35,138.462,102.45   L138.462,102.45z M198.48,181.273c-4.625,1.911-9.025,3.643-13.044,5.126c-1.855,0.686-3.658,1.326-5.383,1.918l0.502,2.55   l-0.012,0.002l0.042,0.23c3,18.125-3.716,31.592-13.135,39.037c-3.528,2.789-7.424,4.739-11.345,5.788   c-4.15,1.107-8.386,1.256-12.343,0.388v-0.006c-8.222-1.818-15.05-7.722-17.52-18.167c-0.066-0.245-0.118-0.495-0.16-0.751   c-3.324-20.083-6.872-44.454-7.961-66.678c-1.125-22.884,0.441-43.694,7.58-56.06c0.253-0.489,0.565-0.957,0.935-1.395   c15.349-18.114,33.506-35.633,53.019-49.896c17.348-12.681,35.821-22.832,54.438-28.629c0.662-0.259,1.374-0.429,2.123-0.49   c12.061-1,35.038,1.03,58.011,3.061c8.448,0.743,16.904,1.493,24.471,2.075v-5.562c0-3.94,1.727-7.474,4.506-9.998   C325.792,1.46,329.322,0,333.154,0h46.617c3.834,0,7.357,1.461,9.951,3.815c2.776,2.524,4.504,6.061,4.504,9.998v117.231   c0,3.938-1.728,7.474-4.504,9.999c-2.594,2.352-6.117,3.816-9.951,3.816h-46.617c-3.829,0-7.357-1.464-9.949-3.816   c-2.779-2.521-4.506-6.06-4.506-9.999V115.46c-7-1.552-13.654-2.973-19.31-3.967c-3.346-0.587-5.107-1.691-6.137-2.174   c-2.38,6.166-5.354,12.02-9.136,17.617c-4.472,6.626-10.063,12.853-17.114,18.75l-0.007-0.01c-0.138,0.115-0.281,0.226-0.432,0.334   c-10.483,7.531-26.579,16.273-42.961,24.083c-7.948,3.79-16.021,7.388-23.597,10.545l-0.036,0.016l-0.029,0.011l-0.02,0.009   l-0.2,0.083l-0.04,0.017l-0.24,0.1l-0.243,0.102l-0.171,0.07l-0.069,0.028l-0.241,0.097L198.48,181.273z"/><path fill-rule="evenodd" clip-rule="evenodd" fill="#FFF584" d="M204.455,170.458c3.981,6.625,6.273,14.381,6.273,22.671   c0,24.338-19.738,44.08-44.079,44.08c-24.337,0-44.076-19.741-44.076-44.08c0-19.764,13.019-36.494,30.94-42.087   c-4.112,6.593-5.672,13.613-4.711,19.43c0.931,5.652,4.839,11.308,12.186,14.444c1.449,0.527,5.174-0.133,10.43-1.685   c6.612-1.95,15.657-5.308,25.631-9.472C197.44,173.597,200.589,172.191,204.455,170.458z"/><polygon fill-rule="evenodd" clip-rule="evenodd" fill="#FFF584" points="153.245,306.098 153.245,237.208 180.057,237.208    180.057,306.098 167.239,321.621  "/><path fill="#5B57A4" d="M145.747,306.098v-65.804c-5.839-2.593-11.109-6.239-15.563-10.693   c-9.335-9.332-15.108-22.229-15.108-36.472c0-11.398,3.718-21.948,10.006-30.502c6.44-8.763,15.592-15.42,26.207-18.731   c3.947-1.231,8.146,0.976,9.375,4.921c0.673,2.161,0.316,4.396-0.793,6.18h0.005c-2.577,4.125-4.502,9.34-3.691,14.272   c0.276,1.675,1.043,3.382,2.327,4.91c1.326,1.572,4.212,3.433,4.989,3.309c1.423-0.231,3.395-0.719,5.807-1.434   c3.035-0.897,6.758-2.16,10.974-3.718c4.289-1.585,8.987-3.442,13.9-5.491l0.251-0.101l1.969-0.871l5.007-2.243   c3.493-1.558,7.552-0.221,9.463,2.989c2.365,3.932,4.221,8.214,5.473,12.744c1.231,4.438,1.885,9.06,1.885,13.766   c0,14.243-5.772,27.14-15.108,36.472c-4.454,4.454-9.725,8.102-15.563,10.693v65.804c0,2.043-0.818,3.895-2.144,5.249l-12.4,15.023   c-2.621,3.186-7.33,3.646-10.518,1.024c-0.294-0.238-0.56-0.499-0.809-0.771l-0.012,0.011l-13.995-15.528   c-1.286-1.428-1.919-3.223-1.919-5.009H145.747L145.747,306.098z M166.495,229.708h0.313c10.034-0.042,19.124-4.13,25.708-10.714   c6.616-6.619,10.715-15.765,10.715-25.865c0-3.441-0.453-6.724-1.299-9.779c-0.293-1.061-0.632-2.102-1.018-3.122l-0.5,0.219   c-0.16,0.081-0.327,0.158-0.492,0.227c-5.151,2.148-10.048,4.085-14.485,5.725c-4.358,1.611-8.392,2.973-11.912,4.01   c-2.942,0.87-5.54,1.5-7.683,1.845c-2.668,0.433-4.967,0.41-6.817-0.118c-0.326-0.089-0.647-0.202-0.966-0.335   c-4.634-1.979-8.275-4.754-10.974-7.955c-3.104-3.68-4.962-7.916-5.669-12.175c-0.249-1.513-0.369-3.08-0.364-4.686   c-1.422,1.388-2.723,2.89-3.903,4.49c-4.447,6.049-7.076,13.54-7.076,21.653c0,10.1,4.098,19.246,10.714,25.865   C147.373,225.577,156.46,229.666,166.495,229.708L166.495,229.708z M166.817,244.708h-0.168h-0.162h-5.738v58.525l6.254,6.942   l5.551-6.731v-58.736H166.817z"/><path fill-rule="evenodd" clip-rule="evenodd" fill="#FFF584" d="M153.585,481.863c-0.222-25.562-0.441-51.119-0.655-76.673   c17.788-13.842,34.867-22.285,58.853-21.045c30.706,3.879,95.149,27.184,98.527,33.793c3.063,6.865,2.745,12.355-0.229,16.848   c27.726-10.882,53.531-25.216,79.82-40.399c26.037-15.023,40.246,11.959,20.328,30.44c-42.108,31.268-87.832,58.229-135.755,71.279   C233.653,507.227,190.059,503.824,153.585,481.863z"/><path fill-rule="evenodd" clip-rule="evenodd" fill="#F5ACCC" d="M145.974,374.645H99.355c-3.83,0-6.954,2.837-6.954,6.311v117.234   c0,3.475,3.124,6.311,6.954,6.311h46.618c3.829,0,6.956-2.836,6.956-6.311V380.955C152.93,377.481,149.803,374.645,145.974,374.645   z"/><path fill="#5B57A4" d="M145.427,382.145H99.901v114.857h45.525V382.145L145.427,382.145z M160.427,390.689   c5.44-3.444,11.011-6.36,16.911-8.651c10.447-4.057,21.713-6.042,34.823-5.362c0.325,0.016,0.639,0.052,0.949,0.11   c15.196,1.977,37.733,8.282,57.562,15.084c23.269,7.978,43.644,17.496,46.292,22.667c0.06,0.119,0.116,0.236,0.171,0.354h0.002   c1.212,2.726,2.022,5.342,2.446,7.848c9.321-4.063,18.462-8.499,27.521-13.189c13.3-6.894,26.158-14.178,39.079-21.634   c10.469-6.045,19.848-6.565,26.988-3.701c4.077,1.633,7.372,4.326,9.747,7.731c2.306,3.313,3.713,7.279,4.085,11.567   c0.731,8.537-2.73,18.495-11.677,26.792c-0.293,0.27-0.596,0.512-0.914,0.728c-21.262,15.773-43.434,30.458-66.338,42.856   c-23.182,12.546-47.122,22.778-71.64,29.451c-0.214,0.056-0.431,0.104-0.647,0.146c-21.672,5.819-44.065,7.728-65.828,5.163   c-17.099-2.013-33.823-6.766-49.532-14.519v4.059c0,3.938-1.72,7.473-4.499,9.996c-2.597,2.353-6.12,3.814-9.954,3.814H99.355   c-3.835,0-7.355-1.462-9.953-3.814c-2.778-2.523-4.5-6.058-4.5-9.996V380.955c0-3.936,1.722-7.473,4.5-9.998   c2.598-2.352,6.118-3.816,9.953-3.816h46.618c3.834,0,7.357,1.465,9.954,3.816c2.779,2.525,4.499,6.063,4.499,9.998V390.689   L160.427,390.689z M303.227,431.566c0.118-0.18,0.238-0.35,0.369-0.512c0.081-0.135,0.16-0.271,0.249-0.399   c0.714-1.083,1.116-2.275,1.143-3.581c0.042-1.626-0.406-3.561-1.392-5.838c-1.437-1.893-18.006-8.399-37.79-15.188   c-19.139-6.563-40.596-12.617-54.583-14.44c-10.796-0.538-20.008,1.082-28.496,4.377c-7.667,2.976-14.913,7.406-22.296,12.912   l0.585,68.622c15.847,8.872,33.022,14.175,50.646,16.25c19.938,2.348,40.434,0.611,60.243-4.707   c0.194-0.073,0.396-0.139,0.605-0.195c23.406-6.372,46.293-16.153,68.477-28.162c22.224-12.027,43.75-26.286,64.401-41.594   c5.051-4.799,7.041-10.067,6.672-14.363c-0.136-1.632-0.638-3.091-1.448-4.25c-0.734-1.061-1.757-1.895-3.006-2.397   c-3.191-1.279-7.946-0.719-13.985,2.766c-13.368,7.718-26.56,15.192-39.664,21.984c-12.75,6.604-25.668,12.72-39.01,18.063   c-2.702,3.652-6.524,6.86-11.158,9.266c-4.575,2.372-9.979,3.991-15.882,4.505c-0.261,0.023-0.518,0.032-0.769,0.027   c-9.818,0.591-22.143-3.881-36.122-8.956c-8.83-3.207-18.388-6.674-28.056-9.093c-4.013-1.002-6.453-5.07-5.454-9.082   c1.008-4.014,5.075-6.451,9.089-5.451c10.214,2.558,20.247,6.198,29.521,9.563c12.373,4.492,23.28,8.452,29.964,8.114   c0.173-0.028,0.353-0.049,0.535-0.065c3.933-0.341,7.434-1.372,10.321-2.861C299.723,435.429,301.891,433.582,303.227,431.566z"/><polygon fill-rule="evenodd" clip-rule="evenodd" fill="#F5ACCC" points="357.986,290.195 357.986,359.752 259.939,359.752    259.939,290.195 225.597,290.195 267.279,255.863 308.964,221.531 350.646,255.863 392.332,290.195  "/><path fill="#5B57A4" d="M365.491,297.695v62.057c0,4.143-3.358,7.5-7.505,7.5h-33.911h-30.227h-33.909   c-4.142,0-7.497-3.357-7.497-7.5v-62.057h-26.846c-4.142,0-7.5-3.357-7.5-7.5c0-2.563,1.287-4.825,3.247-6.177l41.192-33.927   l41.683-34.332c2.826-2.326,6.853-2.227,9.555,0.054l41.621,34.278l41.683,34.331c3.188,2.62,3.646,7.327,1.027,10.518   c-1.479,1.795-3.611,2.727-5.772,2.727v0.028H365.491L365.491,297.695z M316.577,352.253v-37.07h-15.221v37.07H316.577   L316.577,352.253z M286.352,352.253v-44.566c0-4.144,3.358-7.499,7.497-7.499h30.227c4.144,0,7.499,3.355,7.499,7.499v44.566   h18.912v-62.058c0-4.141,3.361-7.501,7.5-7.501h13.484l-25.569-21.06l-36.938-30.42l-36.935,30.42l-25.569,21.06h13.479   c4.142,0,7.5,3.36,7.5,7.501v62.058H286.352z"/></g></svg>